<svg width="75" height="70" viewBox="0 0 75 70" fill="none" xmlns="http://www.w3.org/2000/svg">
<path d="M37.5 44.3333C43.0228 44.3333 47.5 40.1547 47.5 35C47.5 29.8453 43.0228 25.6667 37.5 25.6667C31.9771 25.6667 27.5 29.8453 27.5 35C27.5 40.1547 31.9771 44.3333 37.5 44.3333Z" fill="black"/>
<path d="M28.125 5.83333L22.4062 11.6667H12.5C9.0625 11.6667 6.25 14.2917 6.25 17.5V52.5C6.25 55.7083 9.0625 58.3333 12.5 58.3333H62.5C65.9375 58.3333 68.75 55.7083 68.75 52.5V17.5C68.75 14.2917 65.9375 11.6667 62.5 11.6667H52.5937L46.875 5.83333H28.125ZM37.5 49.5833C28.875 49.5833 21.875 43.05 21.875 35C21.875 26.95 28.875 20.4167 37.5 20.4167C46.125 20.4167 53.125 26.95 53.125 35C53.125 43.05 46.125 49.5833 37.5 49.5833Z" fill="#C7CDA4"/>
</svg>
