<svg xmlns="http://www.w3.org/2000/svg" xmlns:xlink="http://www.w3.org/1999/xlink" viewBox="0 0 650 650"><defs><style>.cls-1{fill:url(#Безымянный_градиент_263);}.cls-2{fill:url(#Безымянный_градиент_17);}.cls-3{fill:url(#Безымянный_градиент_31);}.cls-4{fill:url(#Безымянный_градиент_33);}.cls-5{fill:url(#Безымянный_градиент_33-2);}.cls-6{fill:url(#Безымянный_градиент_33-3);}.cls-7{fill:url(#Безымянный_градиент_33-4);}.cls-8{fill:url(#Безымянный_градиент_33-5);}.cls-9{fill:url(#Безымянный_градиент_33-6);}.cls-10{fill:url(#Безымянный_градиент_33-7);}.cls-11{fill:url(#Безымянный_градиент_11);}.cls-12{fill:url(#Безымянный_градиент_26);}.cls-13{fill:url(#Безымянный_градиент_26-2);}.cls-14{fill:url(#Безымянный_градиент_26-3);}.cls-15{fill:url(#Безымянный_градиент_26-4);}.cls-16{fill:#e7e9eb;}.cls-17{fill:url(#Безымянный_градиент_26-5);}.cls-18{fill:url(#Безымянный_градиент_26-6);}.cls-19{fill:url(#Безымянный_градиент_26-7);}.cls-20{fill:url(#Безымянный_градиент_123);}.cls-21{fill:url(#Безымянный_градиент_123-2);}.cls-22{fill:url(#Безымянный_градиент_29);}.cls-23{fill:url(#Безымянный_градиент_29-2);}.cls-24{fill:url(#Безымянный_градиент_123-3);}.cls-25{fill:url(#Безымянный_градиент_123-4);}.cls-26{fill:url(#Безымянный_градиент_29-3);}.cls-27{fill:url(#Безымянный_градиент_48);}.cls-28{fill:url(#Безымянный_градиент_123-5);}.cls-29{fill:url(#Безымянный_градиент_48-2);}.cls-30{fill:url(#Безымянный_градиент_14);}.cls-31{fill:url(#Безымянный_градиент_29-4);}.cls-32{fill:url(#Безымянный_градиент_29-5);}.cls-33{fill:url(#Безымянный_градиент_29-6);}.cls-34{fill:url(#Безымянный_градиент_29-7);}.cls-35{fill:url(#Безымянный_градиент_29-8);}.cls-36{fill:url(#Безымянный_градиент_29-9);}.cls-37{fill:url(#Безымянный_градиент_29-10);}.cls-38{fill:url(#Безымянный_градиент_29-11);}.cls-39{fill:url(#Безымянный_градиент_29-12);}.cls-40{fill:url(#Безымянный_градиент_29-13);}.cls-41{fill:url(#Безымянный_градиент_29-14);}.cls-42{fill:url(#Безымянный_градиент_29-15);}.cls-43{fill:url(#Безымянный_градиент_29-16);}.cls-44{fill:url(#Безымянный_градиент_29-17);}.cls-45{fill:url(#Безымянный_градиент_29-18);}.cls-46{fill:url(#Безымянный_градиент_29-19);}.cls-47{fill:url(#Безымянный_градиент_29-20);}.cls-48{fill:url(#Безымянный_градиент_29-21);}.cls-49{fill:url(#Безымянный_градиент_29-22);}.cls-50{fill:url(#Безымянный_градиент_29-23);}.cls-51{fill:url(#Безымянный_градиент_123-6);}.cls-52{fill:url(#Безымянный_градиент_123-7);}.cls-53{fill:#1f1844;}.cls-54{fill:url(#Безымянный_градиент_250);}.cls-55{fill:url(#Безымянный_градиент_13);}.cls-56{fill:url(#Безымянный_градиент_23);}.cls-57{fill:url(#Безымянный_градиент_123-8);}.cls-58{fill:url(#Безымянный_градиент_123-9);}.cls-59{fill:url(#Безымянный_градиент_122);}.cls-60{fill:url(#Безымянный_градиент_48-3);}.cls-61{fill:url(#Безымянный_градиент_123-10);}.cls-62{fill:url(#Безымянный_градиент_13-2);}.cls-63,.cls-67,.cls-70{fill:none;stroke-miterlimit:10;}.cls-63{stroke:#f2f4f6;stroke-width:0.69px;}.cls-64{fill:#f2f4f6;}.cls-65{fill:url(#Безымянный_градиент_250-2);}.cls-66{fill:url(#Безымянный_градиент_250-3);}.cls-67{stroke:#fff;stroke-linecap:round;stroke-width:0.92px;}.cls-68{fill:url(#Безымянный_градиент_17-2);}.cls-69{fill:#d5527e;}.cls-70{stroke:#d5527e;stroke-width:1.98px;}.cls-71{fill:url(#Безымянный_градиент_29-24);}.cls-72{fill:url(#Безымянный_градиент_29-25);}.cls-73{fill:url(#Безымянный_градиент_17-3);}.cls-74{fill:url(#Безымянный_градиент_17-4);}.cls-75{fill:url(#Безымянный_градиент_17-5);}.cls-76{fill:url(#Безымянный_градиент_17-6);}</style><linearGradient id="Безымянный_градиент_263" x1="87.08" y1="348.94" x2="640.66" y2="348.94" gradientUnits="userSpaceOnUse"><stop offset="0" stop-color="#f0f2f5"/><stop offset="0.99" stop-color="#f5f7f8"/></linearGradient><linearGradient id="Безымянный_градиент_17" x1="540.06" y1="948.54" x2="718.59" y2="907.52" gradientTransform="translate(-316.8 -539.9) rotate(-9.62)" gradientUnits="userSpaceOnUse"><stop offset="0.01" stop-color="#bbc0d9"/><stop offset="1" stop-color="#d6dbf8"/></linearGradient><linearGradient id="Безымянный_градиент_31" x1="386.07" y1="335.23" x2="523.07" y2="312.49" gradientUnits="userSpaceOnUse"><stop offset="0" stop-color="#d6dbf8"/><stop offset="0.99" stop-color="#d6dbf8"/></linearGradient><linearGradient id="Безымянный_градиент_33" x1="-3348.87" y1="-1526.22" x2="-3322.89" y2="-1526.22" gradientTransform="matrix(-0.3, -0.95, -0.95, 0.3, -1854.91, -2332.47)" gradientUnits="userSpaceOnUse"><stop offset="0" stop-color="#e0e4eb"/><stop offset="0.99" stop-color="#f3f6fd"/></linearGradient><linearGradient id="Безымянный_градиент_33-2" x1="-2044.41" y1="-795.94" x2="-2018.19" y2="-795.94" gradientTransform="matrix(0.16, -0.99, -0.99, -0.16, 122.98, -1676.49)" xlink:href="#Безымянный_градиент_33"/><linearGradient id="Безымянный_градиент_33-3" x1="-7232.68" y1="1378.05" x2="-7206.67" y2="1378.05" gradientTransform="matrix(-0.91, 0.4, 0.4, 0.91, -6611.85, 2010.39)" xlink:href="#Безымянный_градиент_33"/><linearGradient id="Безымянный_градиент_33-4" x1="-7207.01" y1="1984.58" x2="-7180.37" y2="1984.58" gradientTransform="matrix(-0.84, 0.54, 0.48, 0.75, -6478.64, 2823.07)" xlink:href="#Безымянный_градиент_33"/><linearGradient id="Безымянный_градиент_33-5" x1="547.6" y1="442.79" x2="518.51" y2="417.92" gradientTransform="matrix(1, 0, 0, 1, 0, 0)" xlink:href="#Безымянный_градиент_33"/><linearGradient id="Безымянный_градиент_33-6" x1="-1249.7" y1="-160.23" x2="-1222.47" y2="-160.23" gradientTransform="matrix(0.39, -0.85, -0.91, -0.42, 881.04, -608.52)" xlink:href="#Безымянный_градиент_33"/><linearGradient id="Безымянный_градиент_33-7" x1="-7049.94" y1="2762.22" x2="-7020.45" y2="2762.22" gradientTransform="matrix(-0.74, 0.68, 0.53, 0.58, -6163.8, 3587.56)" xlink:href="#Безымянный_градиент_33"/><linearGradient id="Безымянный_градиент_11" x1="-5748.67" y1="-1114.79" x2="-5768.33" y2="-1034.38" gradientTransform="matrix(-0.89, -0.46, -0.46, 0.89, -5024.01, -1359.28)" gradientUnits="userSpaceOnUse"><stop offset="0" stop-color="#e6eaf1"/><stop offset="0.99" stop-color="#f3f6fd"/></linearGradient><linearGradient id="Безымянный_градиент_26" x1="88.66" y1="659.44" x2="195.29" y2="659.44" gradientTransform="translate(-133.48 -268.01) rotate(-4.18)" gradientUnits="userSpaceOnUse"><stop offset="0.01" stop-color="#edeff0"/><stop offset="1" stop-color="#e1e3e6"/></linearGradient><linearGradient id="Безымянный_градиент_26-2" x1="125.44" y1="739.14" x2="223.42" y2="739.14" xlink:href="#Безымянный_градиент_26"/><linearGradient id="Безымянный_градиент_26-3" x1="188.37" y1="624.28" x2="236.18" y2="624.28" xlink:href="#Безымянный_градиент_26"/><linearGradient id="Безымянный_градиент_26-4" x1="218.41" y1="694.52" x2="276.44" y2="694.52" xlink:href="#Безымянный_градиент_26"/><linearGradient id="Безымянный_градиент_26-5" x1="166.74" y1="796.91" x2="264.51" y2="796.91" xlink:href="#Безымянный_градиент_26"/><linearGradient id="Безымянный_градиент_26-6" x1="256.6" y1="737.77" x2="306.54" y2="737.77" xlink:href="#Безымянный_градиент_26"/><linearGradient id="Безымянный_градиент_26-7" x1="125.77" y1="569.97" x2="169.88" y2="569.97" xlink:href="#Безымянный_градиент_26"/><linearGradient id="Безымянный_градиент_123" x1="279.08" y1="529.71" x2="328.79" y2="529.71" gradientUnits="userSpaceOnUse"><stop offset="0" stop-color="#753200"/><stop offset="1" stop-color="#a04400"/></linearGradient><linearGradient id="Безымянный_градиент_123-2" x1="332.91" y1="536.76" x2="357.15" y2="536.76" xlink:href="#Безымянный_градиент_123"/><linearGradient id="Безымянный_градиент_29" x1="270.39" y1="568.94" x2="290.03" y2="568.94" gradientUnits="userSpaceOnUse"><stop offset="0.28" stop-color="#201f4f"/><stop offset="1" stop-color="#201f4f"/></linearGradient><linearGradient id="Безымянный_градиент_29-2" x1="168.42" y1="3408.01" x2="188.06" y2="3408.01" gradientTransform="matrix(0.62, -0.79, 0.79, 0.62, -2442.89, -1373.35)" xlink:href="#Безымянный_градиент_29"/><linearGradient id="Безымянный_градиент_123-3" x1="355.26" y1="446.28" x2="427.02" y2="446.28" xlink:href="#Безымянный_градиент_123"/><linearGradient id="Безымянный_градиент_123-4" x1="278.7" y1="405.21" x2="250.06" y2="353.15" xlink:href="#Безымянный_градиент_123"/><linearGradient id="Безымянный_градиент_29-3" x1="289.01" y1="444.39" x2="376.87" y2="444.39" xlink:href="#Безымянный_градиент_29"/><linearGradient id="Безымянный_градиент_48" x1="-10233.28" y1="1782.7" x2="-10251.73" y2="1800.81" gradientTransform="matrix(-0.98, 0.21, 0.21, 0.98, -10053.71, 800.42)" gradientUnits="userSpaceOnUse"><stop offset="0" stop-color="#a04400"/><stop offset="1" stop-color="#753200"/></linearGradient><linearGradient id="Безымянный_градиент_123-5" x1="1381.55" y1="370.1" x2="1337.52" y2="360.29" gradientTransform="translate(-1019.72)" xlink:href="#Безымянный_градиент_123"/><linearGradient id="Безымянный_градиент_48-2" x1="1341.07" y1="365.56" x2="1362.74" y2="377.59" gradientTransform="translate(-1019.72)" xlink:href="#Безымянный_градиент_48"/><linearGradient id="Безымянный_градиент_14" x1="-10233.23" y1="1769.57" x2="-10238.01" y2="1774.26" gradientTransform="matrix(-0.98, 0.21, 0.21, 0.98, -10053.71, 800.42)" gradientUnits="userSpaceOnUse"><stop offset="0" stop-color="#974000"/><stop offset="1" stop-color="#d5a080"/></linearGradient><linearGradient id="Безымянный_градиент_29-4" x1="309.11" y1="334.77" x2="369.06" y2="334.77" xlink:href="#Безымянный_градиент_29"/><linearGradient id="Безымянный_градиент_29-5" x1="313.19" y1="345.55" x2="320.58" y2="345.55" xlink:href="#Безымянный_градиент_29"/><linearGradient id="Безымянный_градиент_29-6" x1="309.5" y1="339.91" x2="316.88" y2="339.91" xlink:href="#Безымянный_градиент_29"/><linearGradient id="Безымянный_градиент_29-7" x1="307.04" y1="333.65" x2="314.42" y2="333.65" xlink:href="#Безымянный_градиент_29"/><linearGradient id="Безымянный_градиент_29-8" x1="307.04" y1="327.24" x2="314.42" y2="327.24" xlink:href="#Безымянный_градиент_29"/><linearGradient id="Безымянный_градиент_29-9" x1="308.58" y1="320.88" x2="315.96" y2="320.88" xlink:href="#Безымянный_градиент_29"/><linearGradient id="Безымянный_градиент_29-10" x1="314.01" y1="317.19" x2="321.4" y2="317.19" xlink:href="#Безымянный_градиент_29"/><linearGradient id="Безымянный_градиент_29-11" x1="319.99" y1="316.68" x2="327.38" y2="316.68" xlink:href="#Безымянный_градиент_29"/><linearGradient id="Безымянный_градиент_29-12" x1="325.42" y1="317.19" x2="332.81" y2="317.19" xlink:href="#Безымянный_градиент_29"/><linearGradient id="Безымянный_градиент_29-13" x1="329.11" y1="319.45" x2="336.5" y2="319.45" xlink:href="#Безымянный_градиент_29"/><linearGradient id="Безымянный_градиент_29-14" x1="332.27" y1="321.91" x2="339.66" y2="321.91" xlink:href="#Безымянный_градиент_29"/><linearGradient id="Безымянный_градиент_29-15" x1="339.09" y1="320.37" x2="346.47" y2="320.37" xlink:href="#Безымянный_градиент_29"/><linearGradient id="Безымянный_градиент_29-16" x1="344.22" y1="317.19" x2="351.6" y2="317.19" xlink:href="#Безымянный_градиент_29"/><linearGradient id="Безымянный_градиент_29-17" x1="350.47" y1="316.68" x2="357.86" y2="316.68" xlink:href="#Безымянный_градиент_29"/><linearGradient id="Безымянный_градиент_29-18" x1="356.29" y1="316.68" x2="363.67" y2="316.68" xlink:href="#Безымянный_градиент_29"/><linearGradient id="Безымянный_градиент_29-19" x1="359.98" y1="319.86" x2="367.37" y2="319.86" xlink:href="#Безымянный_градиент_29"/><linearGradient id="Безымянный_градиент_29-20" x1="363.67" y1="324.06" x2="371.06" y2="324.06" xlink:href="#Безымянный_градиент_29"/><linearGradient id="Безымянный_градиент_29-21" x1="364.19" y1="329.3" x2="371.57" y2="329.3" xlink:href="#Безымянный_градиент_29"/><linearGradient id="Безымянный_градиент_29-22" x1="363.67" y1="335.31" x2="371.06" y2="335.31" xlink:href="#Безымянный_градиент_29"/><linearGradient id="Безымянный_градиент_29-23" x1="360.85" y1="340.49" x2="368.24" y2="340.49" xlink:href="#Безымянный_градиент_29"/><linearGradient id="Безымянный_градиент_123-6" x1="-6902.28" y1="3813.02" x2="-6921.5" y2="3779.27" gradientTransform="matrix(-0.65, 0.76, 0.76, 0.65, -7178.17, 3300.41)" xlink:href="#Безымянный_градиент_123"/><linearGradient id="Безымянный_градиент_123-7" x1="-6685.8" y1="4066.76" x2="-6701.94" y2="4038.4" gradientTransform="matrix(-0.59, 0.81, 0.81, 0.59, -7043.53, 3595.31)" xlink:href="#Безымянный_градиент_123"/><linearGradient id="Безымянный_градиент_250" x1="111.54" y1="256.63" x2="246.87" y2="256.63" gradientUnits="userSpaceOnUse"><stop offset="0" stop-color="#a7a5ee"/><stop offset="0.44" stop-color="#9d9ce8"/><stop offset="0.89" stop-color="#8988d5"/></linearGradient><linearGradient id="Безымянный_градиент_13" x1="220.59" y1="315.58" x2="266.38" y2="315.58" gradientUnits="userSpaceOnUse"><stop offset="0" stop-color="#a04400"/><stop offset="0.3" stop-color="#9c4200"/><stop offset="0.62" stop-color="#8e3d00"/><stop offset="0.95" stop-color="#793300"/><stop offset="1" stop-color="#753200"/></linearGradient><linearGradient id="Безымянный_градиент_23" x1="-6960.54" y1="-272.24" x2="-6944.1" y2="-362.36" gradientTransform="matrix(-0.99, -0.16, -0.16, 0.99, -6761.58, -552.25)" gradientUnits="userSpaceOnUse"><stop offset="0" stop-color="#9594e0"/><stop offset="0.63" stop-color="#7170b0"/></linearGradient><linearGradient id="Безымянный_градиент_123-8" x1="-7169.16" y1="1158.93" x2="-7162.71" y2="1158.93" gradientTransform="matrix(-0.98, 0.19, 0.19, 0.98, -7094.17, 379.32)" xlink:href="#Безымянный_градиент_123"/><linearGradient id="Безымянный_градиент_123-9" x1="-7239.85" y1="1206.94" x2="-7191.73" y2="1179.44" gradientTransform="matrix(-0.98, 0.19, 0.19, 0.98, -7094.17, 379.32)" xlink:href="#Безымянный_градиент_123"/><linearGradient id="Безымянный_градиент_122" x1="-7205.37" y1="1158.67" x2="-7177.08" y2="1140.39" gradientTransform="matrix(-0.98, 0.19, 0.19, 0.98, -7094.17, 379.32)" gradientUnits="userSpaceOnUse"><stop offset="0" stop-color="#a04400" stop-opacity="0"/><stop offset="0.18" stop-color="#9a4100" stop-opacity="0.14"/><stop offset="0.52" stop-color="#8a3b00" stop-opacity="0.52"/><stop offset="0.9" stop-color="#753200"/></linearGradient><linearGradient id="Безымянный_градиент_48-3" x1="-7166.15" y1="1184.32" x2="-7190.9" y2="1208.61" gradientTransform="matrix(-0.98, 0.19, 0.19, 0.98, -7094.17, 379.32)" xlink:href="#Безымянный_градиент_48"/><linearGradient id="Безымянный_градиент_123-10" x1="-7166.04" y1="1167.21" x2="-7169.23" y2="1170.35" gradientTransform="matrix(-0.98, 0.19, 0.19, 0.98, -7094.17, 379.32)" xlink:href="#Безымянный_градиент_123"/><linearGradient id="Безымянный_градиент_13-2" x1="103.99" y1="319.97" x2="142.04" y2="319.97" xlink:href="#Безымянный_градиент_13"/><linearGradient id="Безымянный_градиент_250-2" x1="148.19" y1="557.78" x2="183.21" y2="557.78" xlink:href="#Безымянный_градиент_250"/><linearGradient id="Безымянный_градиент_250-3" x1="195.63" y1="559.15" x2="259.88" y2="559.15" xlink:href="#Безымянный_градиент_250"/><linearGradient id="Безымянный_градиент_17-2" x1="408.82" y1="539.86" x2="496.68" y2="539.86" gradientTransform="matrix(1, 0, 0, 1, 0, 0)" xlink:href="#Безымянный_градиент_17"/><linearGradient id="Безымянный_градиент_29-24" x1="149.95" y1="-70.56" x2="156.52" y2="-70.56" gradientTransform="translate(249.47 569.63) rotate(9.05)" xlink:href="#Безымянный_градиент_29"/><linearGradient id="Безымянный_градиент_29-25" x1="171.09" y1="-78.45" x2="176.4" y2="-78.45" gradientTransform="translate(354.94 345.75) rotate(90)" xlink:href="#Безымянный_градиент_29"/><linearGradient id="Безымянный_градиент_17-3" x1="443.54" y1="511.04" x2="443.65" y2="499.79" gradientTransform="matrix(1, 0, 0, 1, 0, 0)" xlink:href="#Безымянный_градиент_17"/><linearGradient id="Безымянный_градиент_17-4" x1="426.99" y1="506.62" x2="427.08" y2="498.34" gradientTransform="matrix(1, 0, 0, 1, 0, 0)" xlink:href="#Безымянный_градиент_17"/><linearGradient id="Безымянный_градиент_17-5" x1="430.69" y1="584.34" x2="432.53" y2="568.17" gradientTransform="matrix(1, 0, 0, 1, 0, 0)" xlink:href="#Безымянный_градиент_17"/><linearGradient id="Безымянный_градиент_17-6" x1="474.88" y1="584.78" x2="474.99" y2="568.15" gradientTransform="matrix(1, 0, 0, 1, 0, 0)" xlink:href="#Безымянный_градиент_17"/></defs><title>1</title><g id="_2" data-name="2"><path class="cls-1" d="M621.75,360.48C573.14,256.54,434.1,104.31,253.44,103.92,64.92,103.51,46.68,299.07,148.29,353.41s-47,122.11,59.25,190.19C315,612.5,544.78,606,601.33,552.44S642.76,405.38,621.75,360.48Z"/><path class="cls-2" d="M515.25,306.76c-31.88,17.73,12.27,55.38-21.46,81.42s-79.57,44.12-83.38,34.9c-.26-.61-3.33-6.63-7-15.58-.85-2.06-1.72-4.3-2.62-6.66-.23-.66-.48-1.33-.74-2a190.36,190.36,0,0,1-6.61-22c-.06-.23-.1-.46-.16-.69-.68-3-1.25-6-1.7-9s-.76-5.8-.93-8.65c-.71-10.86.68-21.22,5.73-29.33a29.93,29.93,0,0,1,4.59-5.77c22.73-22.29,34.49-15.33,29.81-41.79-8-45.33,3.74-54.31,19.72-52.41s28.08,1.15,27.46-16-27-89.61,7.55-95.33c59.89-10,42.58,71.58,38.63,85-9.46,32.17,21.49,31.72,32.33,52.16S547.11,289,515.25,306.76Z"/><path class="cls-3" d="M414.83,489.43a141.51,141.51,0,0,1-4.51-21.66,176.24,176.24,0,0,1-1.56-22.14,155.64,155.64,0,0,1,5.95-44.09,131.6,131.6,0,0,1,8.07-20.91c1.59-3.39,3.46-6.64,5.33-9.9l3-4.76c1-1.59,2.15-3.07,3.22-4.61.55-.76,1.07-1.54,1.65-2.28l1.76-2.19,1.77-2.19.89-1.09.95-1,3.79-4.17c1.22-1.37,2.45-2.59,3.58-4a136.46,136.46,0,0,0,12.46-17.7,243.52,243.52,0,0,0,19.06-39.24q3.94-10.2,7.08-20.7l1.5-5.26c.49-1.76.91-3.53,1.39-5.29s.89-3.54,1.31-5.32.86-3.55,1.2-5.34c6-28.54,7.31-58.29,1.77-87.27A183.06,183.06,0,0,1,498.81,180c.29,1.83.44,3.67.64,5.51l.29,2.76c.09.92.13,1.84.2,2.77l.36,5.54.17,5.55a223.32,223.32,0,0,1-3.78,44.25,252.24,252.24,0,0,1-31.08,83.09,141.43,141.43,0,0,1-13,18.3c-1.18,1.45-2.57,2.83-3.8,4.2l-3.66,4-.92,1-.86,1L441.64,360l-1.72,2.09c-.56.7-1.08,1.45-1.62,2.17-1.05,1.46-2.18,2.88-3.17,4.39l-3,4.53c-1.84,3.1-3.7,6.2-5.29,9.45a141.23,141.23,0,0,0-8.27,20.06,162.05,162.05,0,0,0-7.28,42.94,185.86,185.86,0,0,0,.43,21.95c.29,3.66.66,7.31,1.17,10.95S414,485.83,414.83,489.43Z"/><path class="cls-4" d="M642.19,370c-1-17.72-87.48,8.82-83.7,26.31S643.19,386.85,642.19,370Z"/><path class="cls-5" d="M618.46,455c7-16.43-74.32-29.35-78.78-11.87S611.82,470.67,618.46,455Z"/><path class="cls-6" d="M525.3,318.66C508,322,542,405.63,558.82,399.58S541.77,315.48,525.3,318.66Z"/><path class="cls-7" d="M496.75,388.69c-16.37,6.4,27.31,66,42.95,57.24S512.34,382.6,496.75,388.69Z"/><path class="cls-8" d="M589.65,337.29c-4.19,8.27-8.29,16.57-12.14,25s-7.64,16.85-11.18,25.38-6.86,17.15-9.76,25.89c-.74,2.16-1.5,4.42-2.34,6.61-.44,1.09-.85,2.19-1.3,3.27l-1.39,3.23c-1.93,4.27-4.05,8.44-6.31,12.54a215.5,215.5,0,0,1-33.59,44.58c-3.29,3.3-6.66,6.53-10.18,9.59s-7.19,5.94-11,8.64a95.7,95.7,0,0,1-12,7.23A53.59,53.59,0,0,1,465.43,514c8.88-2.71,16.82-7.68,24-13.35a174.19,174.19,0,0,0,20.24-18.73q4.67-5.08,9.09-10.38c2.92-3.56,5.76-7.18,8.47-10.89a219,219,0,0,0,15-23.13c2.24-4,4.35-8.08,6.25-12.24l1.38-3.14c.45-1.05.85-2.12,1.28-3.17.83-2.13,1.55-4.26,2.36-6.47q4.67-13.17,10.37-25.89A454,454,0,0,1,589.65,337.29Z"/><path class="cls-9" d="M589,512.43c10.5-13-70.54-44-78.87-29.33S579,524.8,589,512.43Z"/><path class="cls-10" d="M475.16,424c-14.85,9.38,22.91,71.14,36.82,59.76S489.31,415.09,475.16,424Z"/><path class="cls-11" d="M600,269.11c-16.07-6.81-36,81.51-18.89,85.76S615.32,275.6,600,269.11Z"/><path class="cls-12" d="M2.16,370.9c-2-22,109.54-5.26,108.1,17S4,391.9,2.16,370.9Z"/><path class="cls-13" d="M47.13,471.42c-11.63-19,86.26-49.92,95-29.18S58.21,489.5,47.13,471.42Z"/><path class="cls-14" d="M136.89,286c21.94.92-4.56,110.38-26.42,106S116,285.14,136.89,286Z"/><path class="cls-15" d="M185,367.15c21.37,4.87-21.51,86.44-42.41,78.53S164.68,362.51,185,367.15Z"/><path class="cls-16" d="M60.95,320.88a566.28,566.28,0,0,1,40.89,56.07q9.41,14.62,17.57,30c1.4,2.58,2.68,5.06,4.1,7.54.73,1.23,1.42,2.47,2.17,3.68l2.28,3.62c3.12,4.78,6.47,9.42,10,13.94a273.11,273.11,0,0,0,22.73,25.77c4,4.08,8.21,8,12.46,11.87s8.67,7.53,13.13,11.13a217.21,217.21,0,0,0,28.42,19.36c10,5.66,20.65,10.32,32.12,12-1.43-.15-2.88-.24-4.32-.43s-2.87-.43-4.29-.74-2.84-.63-4.23-1-2.8-.79-4.17-1.26a119.36,119.36,0,0,1-16.09-6.71c-5.19-2.62-10.24-5.53-15.16-8.63s-9.66-6.48-14.32-9.95a268.8,268.8,0,0,1-49.66-48.8c-3.54-4.63-6.93-9.38-10.1-14.3l-2.31-3.73c-.76-1.25-1.47-2.53-2.21-3.8-1.44-2.54-2.8-5.19-4.1-7.72-5.19-10.25-10.92-20.24-16.81-30.14S86.9,359.08,80.53,349.46,67.64,330.31,60.95,320.88Z"/><path class="cls-17" d="M94,536.82c-15.35-14.07,78.9-67.24,91.87-50.73S108.64,550.22,94,536.82Z"/><path class="cls-18" d="M218.18,406.75c20,8.83-15.14,92-34.4,80.52S199.08,398.34,218.18,406.75Z"/><path class="cls-19" d="M35.58,238.7C54.15,227.33,95.09,332.59,74.71,341S17.9,249.53,35.58,238.7Z"/><path class="cls-20" d="M305,496.13l1.79,20.78-27.71,40.41,8.41,5.95,30.41-32.1a30.33,30.33,0,0,0,7.9-15.87l3-17.94Z"/><polygon class="cls-21" points="332.92 500.85 334.56 518.09 341.94 577.38 351.85 575.17 354.46 515.01 357.15 496.13 332.92 500.85"/><path class="cls-22" d="M280.78,555.45s-7.24,1.94-10.39,5.36c4.38,7.8,16.28,22,17.78,21.61s2.87-5.74.82-9.71-.87-9.93-.87-9.93Z"/><path class="cls-23" d="M341.55,576.44s-2.93,6.9-2.17,11.49c8.84,1.35,27.37.74,28-.7s-2.76-5.8-7.14-6.63-8.36-5.43-8.36-5.43Z"/><path class="cls-24" d="M374,416.26l8.21,22.43,23.32,26.08s9.84-1.44,12.31-.68a13.27,13.27,0,0,1,9.17,10,1.34,1.34,0,0,1-2.15,1.31c-3.15-2.5-6.38-6.22-8.12-6.12-2.19.14,4,6.43,2.33,7s-6.15-3.83-7.93-4.51a16.24,16.24,0,0,0-3.69-.65,11.89,11.89,0,0,1-5.34-1.84c-7.41-4.75-28.27-18.19-31.52-21-4-3.42-11.12-17.75-11.12-17.75l-4.2-9.74Z"/><path class="cls-25" d="M290.43,396l-13.68,2.74-19.83-28.31S256.65,360,256,357s-12.86-8.63-14.36-8.22,7.11,9.71,7.11,9.71.82,5.47.41,5.61-8.07-3.42-9.44-2.6,8.48,8.21,8.48,8.21,14,41.17,19.15,43.49,27.63.86,27.63.86Z"/><path class="cls-26" d="M376.87,415.71c-9.88-21.73-25-34.54-49.24-34.06-1.44,0-2.87.35-4.3.48h0s-29.52,10.69-33.21,13.57,3,23.56,3,23.56l19.15-6.54c2.56,7.58,3.12,11.14,1.12,20.16-3.27,14.77-26.66,49.24-23,64.42,14.77,6.56,29.41,14,70.44,7,3.5-10.76,2.58-49,1.42-77.75A70.56,70.56,0,0,0,376.87,415.71Z"/><path class="cls-27" d="M325,366.78c6.69,9.49,14.93,12.57,21.3,13.4l.17-3c-6.2-1.83-13.6-6.11-22.23-15.1l.19.21a30.33,30.33,0,0,1,.53,3.85C325,366.38,325,366.58,325,366.78Z"/><path class="cls-28" d="M363.27,363.59c-1.94,8.43-9.75,12.27-14.81,13.34-.49.1-.95.17-1.37.22-.21,0-.4.05-.58.07l-.06,1.42-1.81,24.55a2.23,2.23,0,0,1-4,1.2c-5-6.49-13.56-17.81-13.66-19.61,0,0-.75-3.88-1.77-15.69-.06-.74-.12-1.51-.19-2.31,0-.21,0-.4-.05-.6,0-.4-.09-.88-.14-1.36a17.77,17.77,0,0,0-.38-2.49,1.79,1.79,0,0,1-.18-.21c-2.83-3.19-4.25-6-4.59-8.23,0-2.76,0-4.81,3.18-6.55.26-16.58,10.82-22.82,28.55-19,1-.28,3.4,2.46,6.1,4.36,2,1.42,4,4,4.92,8.63h0a35.19,35.19,0,0,0-.64,7.88C362.1,352.57,364.64,357.72,363.27,363.59Z"/><path class="cls-29" d="M346.45,378.65s-14.14-1.66-21.22-9.55c-.06-.74-.12-1.51-.19-2.31,0-.21,0-.4-.05-.6,0-.4-.09-.88-.14-1.36,8.66,7,16,10.64,22.24,12.32-.21,0-.4.05-.58.07Z"/><path class="cls-30" d="M325.42,352.62s-2-2.37-3.15-.37,1.11,5.1,1.11,5.1Z"/><path class="cls-31" d="M354,334.77s-9.65,10-15.59,12.8c-6.77,3.22-10.57,3.42-10.57,3.42s-3.12-3.81-4.82-3.13c-3,1.18-3.57,3.33-3.26,6.54-2.85-1.57-1.61-5.72-1.61-5.72s-16.67-17.45-4.77-29,25.85,2.44,25.85,2.44,10.39-11.37,21.88-5.2,9.28,21.86,1.08,26A44.16,44.16,0,0,1,354,334.77Z"/><circle class="cls-32" cx="316.88" cy="345.55" r="3.69"/><circle class="cls-33" cx="313.19" cy="339.91" r="3.69"/><circle class="cls-34" cx="310.73" cy="333.65" r="3.69"/><circle class="cls-35" cx="310.73" cy="327.24" r="3.69"/><circle class="cls-36" cx="312.27" cy="320.88" r="3.69"/><circle class="cls-37" cx="317.71" cy="317.19" r="3.69"/><circle class="cls-38" cx="323.69" cy="316.68" r="3.69"/><circle class="cls-39" cx="329.11" cy="317.19" r="3.69"/><circle class="cls-40" cx="332.81" cy="319.45" r="3.69"/><circle class="cls-41" cx="335.97" cy="321.91" r="3.69"/><circle class="cls-42" cx="342.78" cy="320.37" r="3.69"/><circle class="cls-43" cx="347.91" cy="317.19" r="3.69"/><circle class="cls-44" cx="354.17" cy="316.68" r="3.69"/><circle class="cls-45" cx="359.98" cy="316.68" r="3.69"/><circle class="cls-46" cx="363.67" cy="319.86" r="3.69"/><circle class="cls-47" cx="367.37" cy="324.06" r="3.69"/><circle class="cls-48" cx="367.88" cy="329.3" r="3.69"/><circle class="cls-49" cx="367.37" cy="335.31" r="3.69"/><circle class="cls-50" cx="364.55" cy="340.49" r="3.69"/><polygon class="cls-51" points="220.22 527.42 221.69 547.96 219.87 561.14 216.33 564.29 201.48 559.83 197.82 554.18 199.58 528.19 220.22 527.42"/><polygon class="cls-52" points="170.29 528.34 171.98 538.89 173.92 553.67 168.97 558.9 153.78 555.73 149.66 550.42 151.74 530.17 170.29 528.34"/><path class="cls-53" d="M234.93,446.48c1.6-8.52,5-18.78,3.08-27.24-5.56-24.71-14.43-79.36-19.47-96.94-2.45-8.55-25.52-16-45.37-16.81a29.58,29.58,0,0,0-.06,3.36c-8.66-2-19.7-2.94-29.9-3.36-2,23.71,4.06,133.59,4.06,133.59l3.34,93.56,21.26.41s12.5-154.8,17-155.29S204,432.4,203.51,440l-5.69,91.81,24.4-.18Z"/><path class="cls-54" d="M227.57,188.54c-9.27-8.48-43.88-14.14-52.19-14.25-14.65-.19-38.73,5.54-47.42,15.2-6.41,7.13-12.17,28.6-16.43,49.08L142,254.35c2.05-4.29,3.67-7.45,4.21-8-4.46,25-6.38,55.74-6.27,81.6,42.16,4.57,58,23.56,80.16-2.26l-.92-86.92,1.37,18,26.27-8C244,222.62,238.37,198.42,227.57,188.54Z"/><path class="cls-55" d="M266,366c-.84-2.88-.51-3.81-4.19-7.69s-11.57-12.63-11.57-12.63-3.21-8.43-3-11.79c1-13.72,3.25-51.14-.44-85.08l-26.27,8,1.74,22.82s13.16,70.22,12.84,70.92a13.31,13.31,0,0,0-.26,7.42c.76,2.53,2,4.18,4.15,7s4.43,5.56,5.05,8.5,0,3.21,1.41,3.72,4.43-1.85,4.2-4.34-.8-6.75-.8-6.75a29.25,29.25,0,0,0,4.72,2.53A7.4,7.4,0,0,1,258.3,374c.75,5.24.95,6.83,2.6,8.11s3-3.39,3-3.39S267.51,371.05,266,366Z"/><path class="cls-56" d="M151.14,235.07C139.59,245.38,140,328,140,328l17.07,1.33S149.93,277,151.14,235.07Z"/><path class="cls-57" d="M160.13,132c-1.32-2.37-3.11-9-3.95-11,3.46-.21,7.41,4.25,8,7.29C163.29,128.42,160.94,131.19,160.13,132Z"/><path class="cls-58" d="M182.62,185.75a12.28,12.28,0,0,0,11.81-9.14,18.3,18.3,0,0,0,.16-4.68l-.06-1.68-.05-1.55-.06-1.9a22.09,22.09,0,0,0,2.62-.34c6.8-1.31,17.35-6.24,20.17-17.47,2-7.83-1.29-14.78-1.59-19.31s1.36-7.85,1.89-13c.69-6.56-2.39-14.55-5.69-16.28-14.89-7.86-40.5,1.69-40.5,1.69s-8.51,4.37-4,22.37c-.93-.54,1.06,3.2-.18,3a7.74,7.74,0,0,0-6.19,1.45c-3.15,2.73-2.83,8.91,4.11,17.06l.24.29a40.6,40.6,0,0,1,.61,5.16c0,.26,0,.53.06.8.2,3.19.47,7.33.72,11.32.36,5.77.44,10.75.51,12.68C167.35,181,172.77,186.09,182.62,185.75Z"/><path class="cls-59" d="M167.3,124.5c-4.5-18,4-22.37,4-22.37s25.61-9.55,40.5-1.69c2.33,1.22,2.92,4.72,3.61,7.7-6-4.26-17.53-1.67-26.7-.84-4.39.4-2.13,5-3.34,5.28-9.85-1.16-16,4.14-13.38,17.8l-4.77-2.85C168.23,127.45,166.4,124,167.3,124.5Z"/><path class="cls-53" d="M155.58,120.07c-.75-3.16-.81-6.65-.66-11.43C155.23,98.33,161,92.88,171,89l9.67-3.11c.88-.28,17.23-4.77,25.85-1.76,3.24,1.13,7.86,4.52,8.36,7.29,1.28,7.07,2.17,10.82,1.6,16.5-6.24-13.77-10.58,4.65-31.57-6.48-3.89-2.06-2.13,5-3.34,5.27-11.12-1.3-17.49,5.6-11.95,23.45-3-1.07-5.11-2.39-6.8-2.28C160.29,125.69,156,121.73,155.58,120.07Z"/><path class="cls-60" d="M166,152.28a40.26,40.26,0,0,0,28.57,18l-.05-1.55-.06-1.9a22.09,22.09,0,0,0,2.62-.34c-6.21-3.52-23.52-13.51-32-20.43l.24.29a40.6,40.6,0,0,1,.61,5.16C165.92,151.74,165.94,152,166,152.28Z"/><path class="cls-53" d="M167.66,129.69c-.4-.3-1.58-1-1.58-1l.11-3.52,5.37,2.23a2.94,2.94,0,0,1,1.81,2.53l.77,12.27c7.38,2.74,24.68,11.37,27.61,11.28,3.72-.11,4-4.84,6.18-4.18s2.4,3.42,3.75,3.16c.7-.14,4.73-3.92,5.85-6.16,0,0-.83,8.09-1.07,9.53-.55,3.34-6.08,10.95-6.08,10.95a3.24,3.24,0,0,1-2.46,1.44l-8.7.65-4.8-1.81c-6.63-2.25-23.08-13-23.49-14.85C168.5,141.48,171.62,132.71,167.66,129.69Z"/><path class="cls-61" d="M166.83,133.33s-2.62-3.22-4.2-.57,1.36,6.86,1.36,6.86Z"/><path class="cls-62" d="M142,254.35l-30.51-15.79C106.87,261,104,282.18,104,282.18l5.11,67,.06,9.26s-2.22,10.84-3.34,15.74.32,9.11,1,11.85c1.21,4.81,9.08,13.43,9.08,13.43s3.29,3.19,4,1.31-1.13-7.32-3-11.91c-.9-2.19-1-8.38.42-10.28A27.46,27.46,0,0,0,120,374.3s1.57,3.72,2.57,5.85,4.54,2.61,5.47,1.51.27-1-.63-3.68-.39-6,0-9.28.61-5.23,0-7.63a12.5,12.5,0,0,0-3.75-5.88c-.59-.41-1.92-6.73-1.92-6.73s7-45.8,7-64.29C129.36,282.2,137,264.88,142,254.35Z"/><rect class="cls-53" x="146.91" y="519.87" width="27.01" height="13.25" rx="4.3" ry="4.3"/><rect class="cls-53" x="196.41" y="519.87" width="28.12" height="13.25" rx="4.38" ry="4.38"/><path class="cls-63" d="M166.08,174.82s2.68,51.5,24.62,51.5,3.73-49.7,3.73-49.7"/><circle class="cls-64" cx="165.05" cy="143.72" r="1.78"/><path class="cls-53" d="M148.19,553.24s-4.51,1.94,4.07,21.81c2,4.64,11.09,7.39,20,7.15s12.69-1.6,13.31-4.07-4.68-10.41-4.68-10.41Z"/><path class="cls-65" d="M148.27,551.27s-.09-4.22,1.83-5.2c.89,5,3.31,1.11,6-1.7,2.37-2.43,3.32-4.44,7.85-4.79s6,3.33,7.85,4.79c3.36,2.59,3.43,1.06,4.5,4.86.95,3.36,3.87,15.63,6.47,20.56a2.91,2.91,0,0,1-.42,3.44c-4.21,4.15-13.73,2.64-18.94,1.77-5.91-1-11.25-4.68-13.55-12.56S148.27,551.27,148.27,551.27Z"/><path class="cls-53" d="M195.81,563.6v5.69a4,4,0,0,0,3.49,4c4,.56,10.42,1.49,13.9,2.17,5.3,1,18,5.65,25.13,6.11s15.21.58,18.79-1.73,2.77-7.72,2.77-7.72Z"/><path class="cls-66" d="M197.87,548.39s-3.69,14.06-1.61,16.14,17.63,3.11,21.78,5.76,21.09,6.8,30.08,6.11,11.53-1.84,11.76-4.26S242,566.37,238.79,564s-5.19-10.95-9.68-13.83-1-8.07-5.76-8.3-3.46,7.38-10.49,7.84A63.24,63.24,0,0,1,197.87,548.39Z"/><path class="cls-64" d="M154.24,117.82l14.83-6.06s5.43,11.7,12.53,11.28S199,117,205.22,115.31s16.09,0,19.43,11.49c-2.3-9.4-5.43-11.28-5.43-11.91s2.51-16.5-5.43-25.7-16.92-11.7-27.58-11.49-23.47,4.87-28.62,17.55S154.24,117.82,154.24,117.82Z"/><path class="cls-67" d="M195.89,342.06c.46.92.92,20.6-7,35.71"/><path class="cls-68" d="M490.75,585.27c-2.75.82-6.73,1.23-6.76-2.89,0-2.88,2.21-3.54,3.08-4.2,1.91-1.45-.54-9.46-5.78-9.46a3.91,3.91,0,0,0-.58,0,2.66,2.66,0,0,0-.62.18c-3.32,1.26-3.28,9.69-4.45,12.67l-.08.2h0a2.65,2.65,0,0,1-.62.92,8.47,8.47,0,0,1-5.78,2.27,8.68,8.68,0,0,1-3.49-.86c-3.85-1.78-3-5.49,1.28-6.18,2.86-.45,2.8-7.07.74-8.16-1.79-1-11.63,1.86-16.05,1.36a1.15,1.15,0,0,0-1.27,1.4c1.12,4.69,2.6,9.37.14,11.45-2.75,2.34-11.85,3.59-11.58-.82s4.27-1.66,3.17-5.93-1.39-7.86-3.18-8.13a1.16,1.16,0,0,0-.57.07c-1.85.67-4.57,5.27-5.07,8.75-.55,3.86-2.35,9.09-8.41,6.75l-.12,0-.25-.1-.09,0-.29-.12h0c-5.27-2.43-4.76-6.86-1.72-7.12s6.65-2.81,7.21-9.42c.2-2.48.09-4.42-1.14-8.66-2-6.82.22-12.61-.16-15.89a21.29,21.29,0,0,1-.06-2.33l0,0-.41-3.87s-1.72,1.23-7.65,2.28-6.6-1-6.6-1a79.9,79.9,0,0,1,11.26-6.22,83.75,83.75,0,0,0-12.18-3.06h0a5.29,5.29,0,0,1-2.51-2.32,11,11,0,0,1-1.29-3.93,2.06,2.06,0,0,1,.91-1.88c1.78-1.48,5.78-2.72,10-5.14,1.09-3.83,7.21-7.6,7.21-7.6s-2.34-8.9-4-12.41c9.53-1.72,11.15,10,11.15,10l5.17,2.09s2.47-12.36,4-14.37c4.65,2.25,7.93,14.67,6.09,21.82,5.29,6.09-1,23.76-1,23.76-.61.52-1.21,1-1.79,1.43,1.2-.75,1.9-1.28,1.95-1.28a13.7,13.7,0,0,0,1.07.92c.16.12.32.25.51.37,2.49,1.75,16.63,3,22.95,2.24,4.85-.58,7.39-4.25,8.41-5.74,3-4.48,8.61-14.55,4.67-23.87a.52.52,0,0,1,.79-.64c11.91,9.54,4.23,28.65,1.45,34.54a3.34,3.34,0,0,0,.22,3.23,41.49,41.49,0,0,1,4.8,10.8c3,11.78.57,13.93,2.78,17.23S493.51,584.44,490.75,585.27Z"/><path class="cls-69" d="M405.46,543.57c4.75-3.19,7.43-4.78,8-5.13a.52.52,0,0,1,.13-.08,80,80,0,0,1,11.26-6.21,83.76,83.76,0,0,0-12.18-3.06,5,5,0,0,0,1.86.42C407.25,532.34,401.73,541.47,405.46,543.57Z"/><path class="cls-70" d="M412.69,529.09h0"/><path class="cls-71" d="M408.84,522.83a11.08,11.08,0,0,0,1.3,3.93c2.52-1.22,5.58-3,5.26-4.25s-3.15-1.48-5.64-1.56A2.05,2.05,0,0,0,408.84,522.83Z"/><circle class="cls-72" cx="433.39" cy="519.5" r="2.66" transform="translate(-147.82 865.76) rotate(-80.95)"/><path class="cls-69" d="M450.07,540.57c-4.41,4.66-13.08,7.31-20.44,5.16,0,0-.81-.24-1.22-.38,0-.15-.29-4-.19-4.37.41.15.82.29,1.17.38h0c6.24,1.82,14,1.95,18.92-2.22l.15.14C448.87,539.63,449.63,540.24,450.07,540.57Z"/><path class="cls-73" d="M440.51,508.68l3.09-9.24s4,10.57,2.76,13.81C443.89,511.55,440.51,508.68,440.51,508.68Z"/><polygon class="cls-74" points="423.83 498.04 430.25 506.07 426.94 508.22 423.83 498.04"/><path class="cls-75" d="M438.33,569.22c-1.85.67-4.57,5.27-5.07,8.75-.55,3.86-2.35,9.09-8.41,6.75l-.12,0c1.78.58,3.71-.93,4.85-2.43,2.37-3.12,2.16-5.3,3.08-8.64C433.4,570.92,436.69,568.74,438.33,569.22Z"/><path class="cls-76" d="M480.71,568.77a2.66,2.66,0,0,0-.62.18c-3.32,1.26-3.28,9.69-4.45,12.67l-.08.2h0a2.65,2.65,0,0,1-.62.92,8.47,8.47,0,0,1-5.78,2.27c5-.18,6.09-6.25,6.25-11.89C475.54,568.26,480.71,568.77,480.71,568.77Z"/></g></svg>